# xmcd CD database file
#
# Track frame offsets:
#	187
#	32405
#	59355
#	103665
#	140497
#	161475
#	192425
#	224745
#	264522
#
# Disc length: 4060 seconds
#
# Revision: 0
# Processed by: cddbd v1.5.1PL2 Copyright (c) Steve Scherf et al.
# Submitted via: CDex 1.50
#
DISCID=840fda09
DTITLE=Dusko Goykovich - Live at Lexington Hall
DYEAR=1997
DGENRE=Jazz
TTITLE0=Inga
TTITLE1=Old Fisherman's Daughter
TTITLE2=In Terry-eur of Clark
TTITLE3='Round Midnight
TTITLE4=Pretty Brown
TTITLE5=The Hunt is On
TTITLE6=I Remember Clifford
TTITLE7=Lotus Blossom
TTITLE8=The Theme
EXTD=YEAR: 1997
EXTT0=
EXTT1=
EXTT2=
EXTT3=
EXTT4=
EXTT5=
EXTT6=
EXTT7=
EXTT8=
PLAYORDER=
